<mxfile host="app.diagrams.net" modified="2022-03-09T14:45:02.810Z" agent="5.0 (X11; Linux x86_64) AppleWebKit/537.36 (KHTML, like Gecko) Chrome/96.0.4664.93 Safari/537.36" etag="ngU7ua5ESqzLxSKjWPIZ" version="17.0.0" type="github" pages="2">
  <diagram id="enNiBLfIJg5sqgtFrb1T" name="ex1_2">
    <mxGraphModel dx="1718" dy="949" grid="1" gridSize="10" guides="1" tooltips="1" connect="1" arrows="1" fold="1" page="1" pageScale="1" pageWidth="827" pageHeight="1169" math="0" shadow="0">
      <root>
        <mxCell id="0" />
        <mxCell id="1" parent="0" />
        <mxCell id="flkErL7YkCr-jG7O8vwP-11" value="" style="edgeStyle=orthogonalEdgeStyle;rounded=0;orthogonalLoop=1;jettySize=auto;html=1;" parent="1" source="flkErL7YkCr-jG7O8vwP-8" target="flkErL7YkCr-jG7O8vwP-9" edge="1">
          <mxGeometry relative="1" as="geometry" />
        </mxCell>
        <mxCell id="flkErL7YkCr-jG7O8vwP-40" style="edgeStyle=orthogonalEdgeStyle;rounded=0;orthogonalLoop=1;jettySize=auto;html=1;exitX=0.5;exitY=1;exitDx=0;exitDy=0;entryX=0.5;entryY=0;entryDx=0;entryDy=0;" parent="1" source="flkErL7YkCr-jG7O8vwP-9" target="flkErL7YkCr-jG7O8vwP-12" edge="1">
          <mxGeometry relative="1" as="geometry" />
        </mxCell>
        <mxCell id="flkErL7YkCr-jG7O8vwP-9" value="Levantar CD no CS" style="rounded=1;whiteSpace=wrap;html=1;arcSize=40;fontColor=#000000;fillColor=#ffffc0;strokeColor=#ff0000;" parent="1" vertex="1">
          <mxGeometry x="82" y="335" width="120" height="40" as="geometry" />
        </mxCell>
        <mxCell id="flkErL7YkCr-jG7O8vwP-42" style="edgeStyle=orthogonalEdgeStyle;rounded=0;orthogonalLoop=1;jettySize=auto;html=1;exitX=0.5;exitY=1;exitDx=0;exitDy=0;entryX=0.5;entryY=0;entryDx=0;entryDy=0;" parent="1" source="flkErL7YkCr-jG7O8vwP-12" target="flkErL7YkCr-jG7O8vwP-14" edge="1">
          <mxGeometry relative="1" as="geometry" />
        </mxCell>
        <mxCell id="flkErL7YkCr-jG7O8vwP-12" value="Escolha de MD" style="rounded=1;whiteSpace=wrap;html=1;arcSize=40;fontColor=#000000;fillColor=#ffffc0;strokeColor=#ff0000;" parent="1" vertex="1">
          <mxGeometry x="82" y="400" width="120" height="40" as="geometry" />
        </mxCell>
        <mxCell id="flkErL7YkCr-jG7O8vwP-45" style="edgeStyle=orthogonalEdgeStyle;rounded=0;orthogonalLoop=1;jettySize=auto;html=1;exitX=1;exitY=0.5;exitDx=0;exitDy=0;" parent="1" source="flkErL7YkCr-jG7O8vwP-14" target="flkErL7YkCr-jG7O8vwP-16" edge="1">
          <mxGeometry relative="1" as="geometry">
            <mxPoint x="730" y="490" as="targetPoint" />
            <Array as="points">
              <mxPoint x="730" y="490" />
            </Array>
          </mxGeometry>
        </mxCell>
        <mxCell id="flkErL7YkCr-jG7O8vwP-14" value="Marcação de consulta" style="rounded=1;whiteSpace=wrap;html=1;arcSize=40;fontColor=#000000;fillColor=#ffffc0;strokeColor=#ff0000;" parent="1" vertex="1">
          <mxGeometry x="80" y="470" width="124" height="40" as="geometry" />
        </mxCell>
        <mxCell id="flkErL7YkCr-jG7O8vwP-69" style="edgeStyle=orthogonalEdgeStyle;rounded=0;orthogonalLoop=1;jettySize=auto;html=1;exitX=0;exitY=0.5;exitDx=0;exitDy=0;entryX=0.5;entryY=1;entryDx=0;entryDy=0;" parent="1" source="flkErL7YkCr-jG7O8vwP-62" target="flkErL7YkCr-jG7O8vwP-14" edge="1">
          <mxGeometry relative="1" as="geometry" />
        </mxCell>
        <mxCell id="flkErL7YkCr-jG7O8vwP-75" value="Pool" style="swimlane;childLayout=stackLayout;resizeParent=1;resizeParentMax=0;startSize=20;" parent="1" vertex="1">
          <mxGeometry x="60" y="100" width="897" height="980" as="geometry">
            <mxRectangle x="60" y="100" width="60" height="20" as="alternateBounds" />
          </mxGeometry>
        </mxCell>
        <mxCell id="flkErL7YkCr-jG7O8vwP-76" value="Utente" style="swimlane;startSize=20;" parent="flkErL7YkCr-jG7O8vwP-75" vertex="1">
          <mxGeometry y="20" width="290" height="960" as="geometry" />
        </mxCell>
        <mxCell id="flkErL7YkCr-jG7O8vwP-90" value="" style="edgeStyle=orthogonalEdgeStyle;rounded=0;orthogonalLoop=1;jettySize=auto;html=1;" parent="flkErL7YkCr-jG7O8vwP-76" source="flkErL7YkCr-jG7O8vwP-1" target="flkErL7YkCr-jG7O8vwP-3" edge="1">
          <mxGeometry relative="1" as="geometry" />
        </mxCell>
        <mxCell id="flkErL7YkCr-jG7O8vwP-1" value="" style="ellipse;html=1;shape=startState;fillColor=#000000;strokeColor=#ff0000;" parent="flkErL7YkCr-jG7O8vwP-76" vertex="1">
          <mxGeometry x="73" y="30" width="30" height="30" as="geometry" />
        </mxCell>
        <mxCell id="flkErL7YkCr-jG7O8vwP-3" value="Consulta MA" style="rounded=1;whiteSpace=wrap;html=1;arcSize=40;fontColor=#000000;fillColor=#ffffc0;strokeColor=#ff0000;" parent="flkErL7YkCr-jG7O8vwP-76" vertex="1">
          <mxGeometry x="28" y="80" width="120" height="40" as="geometry" />
        </mxCell>
        <mxCell id="flkErL7YkCr-jG7O8vwP-87" style="edgeStyle=orthogonalEdgeStyle;rounded=0;orthogonalLoop=1;jettySize=auto;html=1;exitX=0.5;exitY=1;exitDx=0;exitDy=0;entryX=0.5;entryY=0;entryDx=0;entryDy=0;" parent="flkErL7YkCr-jG7O8vwP-76" source="flkErL7YkCr-jG7O8vwP-1" target="flkErL7YkCr-jG7O8vwP-3" edge="1">
          <mxGeometry relative="1" as="geometry" />
        </mxCell>
        <mxCell id="flkErL7YkCr-jG7O8vwP-77" value="MA" style="swimlane;startSize=20;" parent="flkErL7YkCr-jG7O8vwP-75" vertex="1">
          <mxGeometry x="290" y="20" width="210" height="960" as="geometry" />
        </mxCell>
        <mxCell id="flkErL7YkCr-jG7O8vwP-5" value="Critérios ?" style="rhombus;whiteSpace=wrap;html=1;fillColor=#ffffc0;strokeColor=#ff0000;" parent="flkErL7YkCr-jG7O8vwP-77" vertex="1">
          <mxGeometry x="40" y="120" width="80" height="40" as="geometry" />
        </mxCell>
        <mxCell id="flkErL7YkCr-jG7O8vwP-8" value="CD" style="html=1;" parent="flkErL7YkCr-jG7O8vwP-77" vertex="1">
          <mxGeometry x="25" y="210" width="110" height="50" as="geometry" />
        </mxCell>
        <mxCell id="flkErL7YkCr-jG7O8vwP-37" value="" style="edgeStyle=orthogonalEdgeStyle;rounded=0;orthogonalLoop=1;jettySize=auto;html=1;" parent="flkErL7YkCr-jG7O8vwP-77" source="flkErL7YkCr-jG7O8vwP-5" target="flkErL7YkCr-jG7O8vwP-8" edge="1">
          <mxGeometry relative="1" as="geometry" />
        </mxCell>
        <mxCell id="flkErL7YkCr-jG7O8vwP-88" value="Sim" style="text;html=1;strokeColor=none;fillColor=none;align=center;verticalAlign=middle;whiteSpace=wrap;rounded=0;" parent="flkErL7YkCr-jG7O8vwP-77" vertex="1">
          <mxGeometry x="75" y="160" width="60" height="30" as="geometry" />
        </mxCell>
        <mxCell id="flkErL7YkCr-jG7O8vwP-94" value="Não" style="text;html=1;strokeColor=none;fillColor=none;align=center;verticalAlign=middle;whiteSpace=wrap;rounded=0;" parent="flkErL7YkCr-jG7O8vwP-77" vertex="1">
          <mxGeometry x="120" y="110" width="60" height="30" as="geometry" />
        </mxCell>
        <mxCell id="flkErL7YkCr-jG7O8vwP-39" style="edgeStyle=orthogonalEdgeStyle;rounded=0;orthogonalLoop=1;jettySize=auto;html=1;exitX=1;exitY=0.5;exitDx=0;exitDy=0;entryX=0.5;entryY=0;entryDx=0;entryDy=0;" parent="flkErL7YkCr-jG7O8vwP-75" source="flkErL7YkCr-jG7O8vwP-3" target="flkErL7YkCr-jG7O8vwP-5" edge="1">
          <mxGeometry relative="1" as="geometry" />
        </mxCell>
        <mxCell id="flkErL7YkCr-jG7O8vwP-98" style="edgeStyle=orthogonalEdgeStyle;rounded=0;orthogonalLoop=1;jettySize=auto;html=1;exitX=1;exitY=0.5;exitDx=0;exitDy=0;entryX=0;entryY=0.5;entryDx=0;entryDy=0;" parent="flkErL7YkCr-jG7O8vwP-75" source="flkErL7YkCr-jG7O8vwP-5" target="flkErL7YkCr-jG7O8vwP-71" edge="1">
          <mxGeometry relative="1" as="geometry">
            <mxPoint x="695" y="945" as="targetPoint" />
            <Array as="points">
              <mxPoint x="460" y="160" />
              <mxPoint x="460" y="945" />
            </Array>
          </mxGeometry>
        </mxCell>
        <mxCell id="flkErL7YkCr-jG7O8vwP-82" value="MD" style="swimlane;startSize=20;" parent="flkErL7YkCr-jG7O8vwP-75" vertex="1">
          <mxGeometry x="500" y="20" width="397" height="960" as="geometry" />
        </mxCell>
        <mxCell id="flkErL7YkCr-jG7O8vwP-83" style="edgeStyle=orthogonalEdgeStyle;rounded=0;orthogonalLoop=1;jettySize=auto;html=1;exitX=0.25;exitY=0.5;exitDx=0;exitDy=0;exitPerimeter=0;entryX=0.5;entryY=0;entryDx=0;entryDy=0;" parent="flkErL7YkCr-jG7O8vwP-82" source="flkErL7YkCr-jG7O8vwP-16" target="flkErL7YkCr-jG7O8vwP-19" edge="1">
          <mxGeometry relative="1" as="geometry" />
        </mxCell>
        <mxCell id="flkErL7YkCr-jG7O8vwP-16" value="" style="shape=line;html=1;strokeWidth=6;strokeColor=#ff0000;" parent="flkErL7YkCr-jG7O8vwP-82" vertex="1">
          <mxGeometry x="60" y="390" width="200" height="10" as="geometry" />
        </mxCell>
        <mxCell id="flkErL7YkCr-jG7O8vwP-21" value="Primeira Consulta ?" style="rhombus;whiteSpace=wrap;html=1;fillColor=#ffffc0;strokeColor=#ff0000;" parent="flkErL7YkCr-jG7O8vwP-82" vertex="1">
          <mxGeometry x="180" y="580" width="90" height="50" as="geometry" />
        </mxCell>
        <mxCell id="flkErL7YkCr-jG7O8vwP-24" value="Pesquisa do Vale no SISO" style="rounded=1;whiteSpace=wrap;html=1;arcSize=40;fontColor=#000000;fillColor=#ffffc0;strokeColor=#ff0000;" parent="flkErL7YkCr-jG7O8vwP-82" vertex="1">
          <mxGeometry x="169" y="440" width="120" height="40" as="geometry" />
        </mxCell>
        <mxCell id="flkErL7YkCr-jG7O8vwP-48" style="edgeStyle=orthogonalEdgeStyle;rounded=0;orthogonalLoop=1;jettySize=auto;html=1;exitX=0.75;exitY=0.5;exitDx=0;exitDy=0;exitPerimeter=0;entryX=0.5;entryY=0;entryDx=0;entryDy=0;" parent="flkErL7YkCr-jG7O8vwP-82" source="flkErL7YkCr-jG7O8vwP-16" target="flkErL7YkCr-jG7O8vwP-24" edge="1">
          <mxGeometry relative="1" as="geometry" />
        </mxCell>
        <mxCell id="flkErL7YkCr-jG7O8vwP-51" style="edgeStyle=orthogonalEdgeStyle;rounded=0;orthogonalLoop=1;jettySize=auto;html=1;exitX=0.5;exitY=1;exitDx=0;exitDy=0;entryX=0.5;entryY=0;entryDx=0;entryDy=0;" parent="flkErL7YkCr-jG7O8vwP-82" source="flkErL7YkCr-jG7O8vwP-28" target="flkErL7YkCr-jG7O8vwP-21" edge="1">
          <mxGeometry relative="1" as="geometry" />
        </mxCell>
        <mxCell id="flkErL7YkCr-jG7O8vwP-28" value="Registo de&amp;nbsp; tratamentos em cada consulta no SISO" style="rounded=1;whiteSpace=wrap;html=1;arcSize=40;fontColor=#000000;fillColor=#ffffc0;strokeColor=#ff0000;" parent="flkErL7YkCr-jG7O8vwP-82" vertex="1">
          <mxGeometry x="165" y="500" width="120" height="50" as="geometry" />
        </mxCell>
        <mxCell id="flkErL7YkCr-jG7O8vwP-49" style="edgeStyle=orthogonalEdgeStyle;rounded=0;orthogonalLoop=1;jettySize=auto;html=1;exitX=0.5;exitY=1;exitDx=0;exitDy=0;entryX=0.5;entryY=0;entryDx=0;entryDy=0;" parent="flkErL7YkCr-jG7O8vwP-82" source="flkErL7YkCr-jG7O8vwP-24" target="flkErL7YkCr-jG7O8vwP-28" edge="1">
          <mxGeometry relative="1" as="geometry" />
        </mxCell>
        <mxCell id="flkErL7YkCr-jG7O8vwP-30" value="Registo do Diagnostico e Plano de Tratamento no SISO" style="rounded=1;whiteSpace=wrap;html=1;arcSize=40;fontColor=#000000;fillColor=#ffffc0;strokeColor=#ff0000;" parent="flkErL7YkCr-jG7O8vwP-82" vertex="1">
          <mxGeometry x="270" y="640" width="120" height="60" as="geometry" />
        </mxCell>
        <mxCell id="flkErL7YkCr-jG7O8vwP-55" style="edgeStyle=orthogonalEdgeStyle;rounded=0;orthogonalLoop=1;jettySize=auto;html=1;exitX=1;exitY=0.5;exitDx=0;exitDy=0;entryX=0.5;entryY=0;entryDx=0;entryDy=0;" parent="flkErL7YkCr-jG7O8vwP-82" source="flkErL7YkCr-jG7O8vwP-21" target="flkErL7YkCr-jG7O8vwP-30" edge="1">
          <mxGeometry relative="1" as="geometry" />
        </mxCell>
        <mxCell id="flkErL7YkCr-jG7O8vwP-32" value="" style="rhombus;whiteSpace=wrap;html=1;fillColor=#ffffc0;strokeColor=#ff0000;" parent="flkErL7YkCr-jG7O8vwP-82" vertex="1">
          <mxGeometry x="185" y="700" width="80" height="40" as="geometry" />
        </mxCell>
        <object label="" Não="" id="flkErL7YkCr-jG7O8vwP-52">
          <mxCell style="edgeStyle=orthogonalEdgeStyle;rounded=0;orthogonalLoop=1;jettySize=auto;exitX=0.5;exitY=1;exitDx=0;exitDy=0;entryX=0.5;entryY=0;entryDx=0;entryDy=0;html=1;" parent="flkErL7YkCr-jG7O8vwP-82" source="flkErL7YkCr-jG7O8vwP-21" target="flkErL7YkCr-jG7O8vwP-32" edge="1">
            <mxGeometry relative="1" as="geometry" />
          </mxCell>
        </object>
        <mxCell id="flkErL7YkCr-jG7O8vwP-57" style="edgeStyle=orthogonalEdgeStyle;rounded=0;orthogonalLoop=1;jettySize=auto;html=1;exitX=0.5;exitY=1;exitDx=0;exitDy=0;entryX=1;entryY=0.5;entryDx=0;entryDy=0;" parent="flkErL7YkCr-jG7O8vwP-82" source="flkErL7YkCr-jG7O8vwP-30" target="flkErL7YkCr-jG7O8vwP-32" edge="1">
          <mxGeometry relative="1" as="geometry" />
        </mxCell>
        <mxCell id="flkErL7YkCr-jG7O8vwP-53" value="Não" style="text;html=1;strokeColor=none;fillColor=none;align=center;verticalAlign=middle;whiteSpace=wrap;rounded=0;" parent="flkErL7YkCr-jG7O8vwP-82" vertex="1">
          <mxGeometry x="180" y="640" width="60" height="30" as="geometry" />
        </mxCell>
        <mxCell id="flkErL7YkCr-jG7O8vwP-56" value="Sim" style="text;html=1;strokeColor=none;fillColor=none;align=center;verticalAlign=middle;whiteSpace=wrap;rounded=0;" parent="flkErL7YkCr-jG7O8vwP-82" vertex="1">
          <mxGeometry x="260" y="580" width="60" height="30" as="geometry" />
        </mxCell>
        <mxCell id="flkErL7YkCr-jG7O8vwP-58" value="" style="shape=line;html=1;strokeWidth=6;strokeColor=#ff0000;" parent="flkErL7YkCr-jG7O8vwP-82" vertex="1">
          <mxGeometry x="60" y="760" width="200" height="10" as="geometry" />
        </mxCell>
        <mxCell id="flkErL7YkCr-jG7O8vwP-60" style="edgeStyle=orthogonalEdgeStyle;rounded=0;orthogonalLoop=1;jettySize=auto;html=1;exitX=0.5;exitY=1;exitDx=0;exitDy=0;entryX=0.833;entryY=0.276;entryDx=0;entryDy=0;entryPerimeter=0;" parent="flkErL7YkCr-jG7O8vwP-82" source="flkErL7YkCr-jG7O8vwP-32" target="flkErL7YkCr-jG7O8vwP-58" edge="1">
          <mxGeometry relative="1" as="geometry" />
        </mxCell>
        <mxCell id="flkErL7YkCr-jG7O8vwP-102" style="edgeStyle=orthogonalEdgeStyle;rounded=0;orthogonalLoop=1;jettySize=auto;html=1;exitX=0.5;exitY=1;exitDx=0;exitDy=0;entryX=0.5;entryY=0;entryDx=0;entryDy=0;" parent="flkErL7YkCr-jG7O8vwP-82" source="flkErL7YkCr-jG7O8vwP-62" target="flkErL7YkCr-jG7O8vwP-71" edge="1">
          <mxGeometry relative="1" as="geometry">
            <mxPoint x="160" y="910" as="targetPoint" />
          </mxGeometry>
        </mxCell>
        <mxCell id="flkErL7YkCr-jG7O8vwP-62" value="Nova Consulta ?" style="rhombus;whiteSpace=wrap;html=1;fillColor=#ffffc0;strokeColor=#ff0000;" parent="flkErL7YkCr-jG7O8vwP-82" vertex="1">
          <mxGeometry x="100" y="810" width="120" height="50" as="geometry" />
        </mxCell>
        <mxCell id="flkErL7YkCr-jG7O8vwP-66" value="" style="edgeStyle=orthogonalEdgeStyle;rounded=0;orthogonalLoop=1;jettySize=auto;html=1;" parent="flkErL7YkCr-jG7O8vwP-82" source="flkErL7YkCr-jG7O8vwP-58" target="flkErL7YkCr-jG7O8vwP-62" edge="1">
          <mxGeometry relative="1" as="geometry" />
        </mxCell>
        <mxCell id="flkErL7YkCr-jG7O8vwP-71" value="" style="ellipse;html=1;shape=endState;fillColor=#000000;strokeColor=#ff0000;" parent="flkErL7YkCr-jG7O8vwP-82" vertex="1">
          <mxGeometry x="145" y="910" width="30" height="30" as="geometry" />
        </mxCell>
        <mxCell id="flkErL7YkCr-jG7O8vwP-73" value="Não" style="text;html=1;strokeColor=none;fillColor=none;align=center;verticalAlign=middle;whiteSpace=wrap;rounded=0;" parent="flkErL7YkCr-jG7O8vwP-82" vertex="1">
          <mxGeometry x="155" y="860" width="60" height="30" as="geometry" />
        </mxCell>
        <mxCell id="flkErL7YkCr-jG7O8vwP-84" style="edgeStyle=orthogonalEdgeStyle;rounded=0;orthogonalLoop=1;jettySize=auto;html=1;exitX=0.5;exitY=1;exitDx=0;exitDy=0;entryX=0.25;entryY=0.5;entryDx=0;entryDy=0;entryPerimeter=0;" parent="flkErL7YkCr-jG7O8vwP-82" source="flkErL7YkCr-jG7O8vwP-19" target="flkErL7YkCr-jG7O8vwP-58" edge="1">
          <mxGeometry relative="1" as="geometry" />
        </mxCell>
        <mxCell id="flkErL7YkCr-jG7O8vwP-19" value="Consulta" style="rounded=1;whiteSpace=wrap;html=1;arcSize=40;fontColor=#000000;fillColor=#ffffc0;strokeColor=#ff0000;" parent="flkErL7YkCr-jG7O8vwP-82" vertex="1">
          <mxGeometry x="35" y="560" width="120" height="40" as="geometry" />
        </mxCell>
        <mxCell id="flkErL7YkCr-jG7O8vwP-70" value="Sim" style="text;html=1;strokeColor=none;fillColor=none;align=center;verticalAlign=middle;whiteSpace=wrap;rounded=0;" parent="flkErL7YkCr-jG7O8vwP-82" vertex="1">
          <mxGeometry x="40" y="810" width="60" height="30" as="geometry" />
        </mxCell>
      </root>
    </mxGraphModel>
  </diagram>
  <diagram id="drQ3skYYBl7UN4bwTTej" name="ex1_3">
    <mxGraphModel dx="1340" dy="632" grid="1" gridSize="10" guides="1" tooltips="1" connect="1" arrows="1" fold="1" page="1" pageScale="1" pageWidth="827" pageHeight="1169" math="0" shadow="0">
      <root>
        <mxCell id="GmzvWgwPOf0xR4j0EBqi-0" />
        <mxCell id="GmzvWgwPOf0xR4j0EBqi-1" parent="GmzvWgwPOf0xR4j0EBqi-0" />
        <mxCell id="NbL5csSl9PgMOPHOTbrk-0" value="Pool" style="swimlane;childLayout=stackLayout;resizeParent=1;resizeParentMax=0;startSize=20;strokeColor=#FF0000;fillColor=#FFF2CC;align=center;verticalAlign=middle;" vertex="1" parent="GmzvWgwPOf0xR4j0EBqi-1">
          <mxGeometry x="60" y="30" width="990" height="930" as="geometry" />
        </mxCell>
        <mxCell id="NbL5csSl9PgMOPHOTbrk-17" style="edgeStyle=orthogonalEdgeStyle;rounded=0;orthogonalLoop=1;jettySize=auto;html=1;exitX=1;exitY=0.5;exitDx=0;exitDy=0;entryX=0;entryY=0.5;entryDx=0;entryDy=0;" edge="1" parent="NbL5csSl9PgMOPHOTbrk-0" source="NbL5csSl9PgMOPHOTbrk-11" target="NbL5csSl9PgMOPHOTbrk-16">
          <mxGeometry relative="1" as="geometry" />
        </mxCell>
        <mxCell id="NbL5csSl9PgMOPHOTbrk-1" value="Médico" style="swimlane;startSize=20;strokeColor=#FF0000;fillColor=#FFF2CC;" vertex="1" parent="NbL5csSl9PgMOPHOTbrk-0">
          <mxGeometry y="20" width="250" height="910" as="geometry" />
        </mxCell>
        <mxCell id="NbL5csSl9PgMOPHOTbrk-7" value="" style="edgeStyle=orthogonalEdgeStyle;rounded=0;orthogonalLoop=1;jettySize=auto;html=1;" edge="1" parent="NbL5csSl9PgMOPHOTbrk-1" source="NbL5csSl9PgMOPHOTbrk-5" target="NbL5csSl9PgMOPHOTbrk-6">
          <mxGeometry relative="1" as="geometry" />
        </mxCell>
        <mxCell id="NbL5csSl9PgMOPHOTbrk-5" value="" style="ellipse;fillColor=#000000;strokeColor=none;" vertex="1" parent="NbL5csSl9PgMOPHOTbrk-1">
          <mxGeometry x="95" y="30" width="30" height="30" as="geometry" />
        </mxCell>
        <mxCell id="NbL5csSl9PgMOPHOTbrk-10" value="" style="edgeStyle=orthogonalEdgeStyle;rounded=0;orthogonalLoop=1;jettySize=auto;html=1;" edge="1" parent="NbL5csSl9PgMOPHOTbrk-1" source="NbL5csSl9PgMOPHOTbrk-6" target="NbL5csSl9PgMOPHOTbrk-9">
          <mxGeometry relative="1" as="geometry" />
        </mxCell>
        <mxCell id="NbL5csSl9PgMOPHOTbrk-6" value="Preenchimento de&lt;br&gt;formulário" style="html=1;align=center;verticalAlign=middle;rounded=1;absoluteArcSize=1;arcSize=10;dashed=0;strokeColor=#FF0000;fillColor=#FFF2CC;" vertex="1" parent="NbL5csSl9PgMOPHOTbrk-1">
          <mxGeometry x="52.5" y="80" width="115" height="40" as="geometry" />
        </mxCell>
        <mxCell id="NbL5csSl9PgMOPHOTbrk-9" value="Dados do Médico" style="html=1;strokeColor=#FF0000;fillColor=#FFF2CC;verticalAlign=middle;" vertex="1" parent="NbL5csSl9PgMOPHOTbrk-1">
          <mxGeometry x="52.5" y="150" width="115" height="40" as="geometry" />
        </mxCell>
        <mxCell id="NbL5csSl9PgMOPHOTbrk-37" value="Entrada no sistema" style="html=1;align=center;verticalAlign=middle;rounded=1;absoluteArcSize=1;arcSize=10;dashed=0;fontSize=12;strokeColor=#FF0000;fillColor=#FFF2CC;" vertex="1" parent="NbL5csSl9PgMOPHOTbrk-1">
          <mxGeometry x="53" y="210" width="117" height="40" as="geometry" />
        </mxCell>
        <mxCell id="_6ze0SiyMvSnPd6XlcF5-1" value="" style="edgeStyle=orthogonalEdgeStyle;rounded=0;orthogonalLoop=1;jettySize=auto;html=1;fontSize=12;" edge="1" parent="NbL5csSl9PgMOPHOTbrk-1" source="NbL5csSl9PgMOPHOTbrk-39" target="_6ze0SiyMvSnPd6XlcF5-0">
          <mxGeometry relative="1" as="geometry" />
        </mxCell>
        <mxCell id="NbL5csSl9PgMOPHOTbrk-39" value="Pedido de adesão&lt;br&gt;de clínica" style="html=1;align=center;verticalAlign=middle;rounded=1;absoluteArcSize=1;arcSize=10;dashed=0;fontSize=12;strokeColor=#FF0000;fillColor=#FFF2CC;" vertex="1" parent="NbL5csSl9PgMOPHOTbrk-1">
          <mxGeometry x="53" y="280" width="117" height="40" as="geometry" />
        </mxCell>
        <mxCell id="NbL5csSl9PgMOPHOTbrk-40" value="" style="edgeStyle=orthogonalEdgeStyle;rounded=0;orthogonalLoop=1;jettySize=auto;html=1;fontSize=12;" edge="1" parent="NbL5csSl9PgMOPHOTbrk-1" source="NbL5csSl9PgMOPHOTbrk-37" target="NbL5csSl9PgMOPHOTbrk-39">
          <mxGeometry relative="1" as="geometry" />
        </mxCell>
        <mxCell id="_6ze0SiyMvSnPd6XlcF5-0" value="Habilitações da&lt;br&gt;Clínica" style="html=1;fontSize=12;strokeColor=#FF0000;fillColor=#FFF2CC;" vertex="1" parent="NbL5csSl9PgMOPHOTbrk-1">
          <mxGeometry x="56.5" y="350" width="110" height="40" as="geometry" />
        </mxCell>
        <mxCell id="_6ze0SiyMvSnPd6XlcF5-35" value="" style="edgeStyle=orthogonalEdgeStyle;rounded=0;orthogonalLoop=1;jettySize=auto;html=1;fontSize=12;" edge="1" parent="NbL5csSl9PgMOPHOTbrk-1" source="_6ze0SiyMvSnPd6XlcF5-30" target="_6ze0SiyMvSnPd6XlcF5-33">
          <mxGeometry relative="1" as="geometry" />
        </mxCell>
        <mxCell id="_6ze0SiyMvSnPd6XlcF5-30" value="Confirmação" style="html=1;shape=mxgraph.infographic.ribbonSimple;notch1=12;notch2=0;align=center;verticalAlign=middle;fontSize=14;fontStyle=0;flipH=1;fillColor=#FFFFFF;strokeColor=#FF0000;" vertex="1" parent="NbL5csSl9PgMOPHOTbrk-1">
          <mxGeometry x="54" y="420" width="115" height="40" as="geometry" />
        </mxCell>
        <mxCell id="_6ze0SiyMvSnPd6XlcF5-39" value="" style="edgeStyle=orthogonalEdgeStyle;rounded=0;orthogonalLoop=1;jettySize=auto;html=1;fontSize=12;" edge="1" parent="NbL5csSl9PgMOPHOTbrk-1" source="_6ze0SiyMvSnPd6XlcF5-33" target="_6ze0SiyMvSnPd6XlcF5-36">
          <mxGeometry relative="1" as="geometry" />
        </mxCell>
        <mxCell id="_6ze0SiyMvSnPd6XlcF5-33" value="Aceitar condições&lt;br&gt;de acesso + imprimir DC" style="html=1;align=center;verticalAlign=top;rounded=1;absoluteArcSize=1;arcSize=10;dashed=0;fontSize=12;strokeColor=#FF0000;fillColor=#FFF2CC;" vertex="1" parent="NbL5csSl9PgMOPHOTbrk-1">
          <mxGeometry x="40.75" y="495" width="141.5" height="40" as="geometry" />
        </mxCell>
        <mxCell id="_6ze0SiyMvSnPd6XlcF5-44" value="" style="edgeStyle=orthogonalEdgeStyle;rounded=0;orthogonalLoop=1;jettySize=auto;html=1;fontSize=12;" edge="1" parent="NbL5csSl9PgMOPHOTbrk-1" source="_6ze0SiyMvSnPd6XlcF5-36" target="_6ze0SiyMvSnPd6XlcF5-43">
          <mxGeometry relative="1" as="geometry" />
        </mxCell>
        <mxCell id="_6ze0SiyMvSnPd6XlcF5-36" value="Assinatura da DC" style="html=1;align=center;verticalAlign=middle;rounded=1;absoluteArcSize=1;arcSize=10;dashed=0;fontSize=12;strokeColor=#FF0000;fillColor=#FFF2CC;" vertex="1" parent="NbL5csSl9PgMOPHOTbrk-1">
          <mxGeometry x="57.25" y="560" width="108.5" height="40" as="geometry" />
        </mxCell>
        <mxCell id="_6ze0SiyMvSnPd6XlcF5-42" value="" style="edgeStyle=orthogonalEdgeStyle;rounded=0;orthogonalLoop=1;jettySize=auto;html=1;fontSize=12;" edge="1" parent="NbL5csSl9PgMOPHOTbrk-1" source="_6ze0SiyMvSnPd6XlcF5-40" target="_6ze0SiyMvSnPd6XlcF5-36">
          <mxGeometry relative="1" as="geometry" />
        </mxCell>
        <mxCell id="_6ze0SiyMvSnPd6XlcF5-40" value="Diretor&lt;br&gt;Clínica" style="shape=umlActor;verticalLabelPosition=bottom;verticalAlign=top;html=1;fontSize=12;strokeColor=#FF0000;fillColor=#FFF2CC;" vertex="1" parent="NbL5csSl9PgMOPHOTbrk-1">
          <mxGeometry x="210" y="550" width="30" height="60" as="geometry" />
        </mxCell>
        <mxCell id="_6ze0SiyMvSnPd6XlcF5-43" value="Declaração&lt;br&gt;assinada" style="html=1;fontSize=12;strokeColor=#FF0000;fillColor=#FFF2CC;" vertex="1" parent="NbL5csSl9PgMOPHOTbrk-1">
          <mxGeometry x="56.5" y="660" width="110" height="40" as="geometry" />
        </mxCell>
        <mxCell id="NbL5csSl9PgMOPHOTbrk-2" value="ARS" style="swimlane;startSize=20;strokeColor=#FF0000;fillColor=#FFF2CC;verticalAlign=middle;" vertex="1" parent="NbL5csSl9PgMOPHOTbrk-0">
          <mxGeometry x="250" y="20" width="220" height="910" as="geometry" />
        </mxCell>
        <mxCell id="NbL5csSl9PgMOPHOTbrk-11" value="Envio de dados para OMS" style="rounded=1;whiteSpace=wrap;html=1;fillColor=#FFF2CC;strokeColor=#FF0000;verticalAlign=middle;" vertex="1" parent="NbL5csSl9PgMOPHOTbrk-2">
          <mxGeometry x="50" y="30" width="120" height="40" as="geometry" />
        </mxCell>
        <mxCell id="_6ze0SiyMvSnPd6XlcF5-6" value="Pedido da informação&lt;br&gt;constante no regulador" style="html=1;align=center;verticalAlign=top;rounded=1;absoluteArcSize=1;arcSize=10;dashed=0;fontSize=12;strokeColor=#FF0000;fillColor=#FFF2CC;" vertex="1" parent="NbL5csSl9PgMOPHOTbrk-2">
          <mxGeometry x="40" y="250" width="140" height="40" as="geometry" />
        </mxCell>
        <mxCell id="_6ze0SiyMvSnPd6XlcF5-22" value="" style="edgeStyle=orthogonalEdgeStyle;rounded=0;orthogonalLoop=1;jettySize=auto;html=1;fontSize=12;" edge="1" parent="NbL5csSl9PgMOPHOTbrk-2" source="_6ze0SiyMvSnPd6XlcF5-19" target="_6ze0SiyMvSnPd6XlcF5-21">
          <mxGeometry relative="1" as="geometry" />
        </mxCell>
        <mxCell id="_6ze0SiyMvSnPd6XlcF5-19" value="Verificação dos dados" style="whiteSpace=wrap;html=1;verticalAlign=middle;fillColor=#FFF2CC;strokeColor=#FF0000;rounded=1;arcSize=10;dashed=0;" vertex="1" parent="NbL5csSl9PgMOPHOTbrk-2">
          <mxGeometry x="40" y="310" width="140" height="40" as="geometry" />
        </mxCell>
        <mxCell id="_6ze0SiyMvSnPd6XlcF5-29" style="edgeStyle=orthogonalEdgeStyle;rounded=0;orthogonalLoop=1;jettySize=auto;html=1;exitX=0.5;exitY=1;exitDx=0;exitDy=0;entryX=0;entryY=0;entryDx=40;entryDy=0;entryPerimeter=0;fontSize=12;" edge="1" parent="NbL5csSl9PgMOPHOTbrk-2" source="_6ze0SiyMvSnPd6XlcF5-21" target="_6ze0SiyMvSnPd6XlcF5-25">
          <mxGeometry relative="1" as="geometry" />
        </mxCell>
        <mxCell id="_6ze0SiyMvSnPd6XlcF5-53" style="edgeStyle=orthogonalEdgeStyle;rounded=0;orthogonalLoop=1;jettySize=auto;html=1;exitX=1;exitY=0.5;exitDx=0;exitDy=0;entryX=1;entryY=0;entryDx=0;entryDy=0;fontSize=12;" edge="1" parent="NbL5csSl9PgMOPHOTbrk-2" source="_6ze0SiyMvSnPd6XlcF5-21" target="_6ze0SiyMvSnPd6XlcF5-51">
          <mxGeometry relative="1" as="geometry">
            <Array as="points">
              <mxPoint x="200" y="395" />
              <mxPoint x="200" y="874" />
            </Array>
          </mxGeometry>
        </mxCell>
        <mxCell id="_6ze0SiyMvSnPd6XlcF5-21" value="Válidos ?" style="rhombus;strokeColor=#FF0000;fillColor=#FFF2CC;verticalAlign=middle;" vertex="1" parent="NbL5csSl9PgMOPHOTbrk-2">
          <mxGeometry x="72.5" y="380" width="75" height="30" as="geometry" />
        </mxCell>
        <mxCell id="_6ze0SiyMvSnPd6XlcF5-25" value="Aprovado" style="html=1;shape=mxgraph.infographic.ribbonSimple;notch1=0;notch2=20;align=center;verticalAlign=middle;fontSize=14;fontStyle=0;fillColor=#FFFFFF;strokeColor=#FF0000;" vertex="1" parent="NbL5csSl9PgMOPHOTbrk-2">
          <mxGeometry x="10" y="450" width="80" height="40" as="geometry" />
        </mxCell>
        <mxCell id="_6ze0SiyMvSnPd6XlcF5-27" value="Sim" style="text;html=1;strokeColor=none;fillColor=none;align=center;verticalAlign=middle;whiteSpace=wrap;rounded=0;fontSize=12;" vertex="1" parent="NbL5csSl9PgMOPHOTbrk-2">
          <mxGeometry x="50" y="410" width="60" height="30" as="geometry" />
        </mxCell>
        <mxCell id="_6ze0SiyMvSnPd6XlcF5-45" value="Validação da Clínica" style="html=1;align=center;verticalAlign=middle;rounded=1;absoluteArcSize=1;arcSize=10;dashed=0;fontSize=12;strokeColor=#FF0000;fillColor=#FFF2CC;" vertex="1" parent="NbL5csSl9PgMOPHOTbrk-2">
          <mxGeometry x="40" y="660" width="140" height="40" as="geometry" />
        </mxCell>
        <mxCell id="_6ze0SiyMvSnPd6XlcF5-57" style="edgeStyle=orthogonalEdgeStyle;rounded=0;orthogonalLoop=1;jettySize=auto;html=1;exitX=0;exitY=0.5;exitDx=0;exitDy=0;entryX=0;entryY=0.5;entryDx=0;entryDy=0;fontSize=12;" edge="1" parent="NbL5csSl9PgMOPHOTbrk-2" source="_6ze0SiyMvSnPd6XlcF5-47" target="_6ze0SiyMvSnPd6XlcF5-51">
          <mxGeometry relative="1" as="geometry">
            <Array as="points">
              <mxPoint x="30" y="745" />
              <mxPoint x="30" y="885" />
            </Array>
          </mxGeometry>
        </mxCell>
        <mxCell id="_6ze0SiyMvSnPd6XlcF5-47" value="Válidos ?" style="rhombus;whiteSpace=wrap;html=1;fillColor=#FFF2CC;strokeColor=#FF0000;rounded=1;arcSize=0;dashed=0;verticalAlign=middle;" vertex="1" parent="NbL5csSl9PgMOPHOTbrk-2">
          <mxGeometry x="70" y="730" width="80" height="30" as="geometry" />
        </mxCell>
        <mxCell id="_6ze0SiyMvSnPd6XlcF5-48" value="" style="edgeStyle=orthogonalEdgeStyle;rounded=0;orthogonalLoop=1;jettySize=auto;html=1;fontSize=12;" edge="1" parent="NbL5csSl9PgMOPHOTbrk-2" source="_6ze0SiyMvSnPd6XlcF5-45" target="_6ze0SiyMvSnPd6XlcF5-47">
          <mxGeometry relative="1" as="geometry" />
        </mxCell>
        <mxCell id="_6ze0SiyMvSnPd6XlcF5-52" value="" style="edgeStyle=orthogonalEdgeStyle;rounded=0;orthogonalLoop=1;jettySize=auto;html=1;fontSize=12;" edge="1" parent="NbL5csSl9PgMOPHOTbrk-2" source="_6ze0SiyMvSnPd6XlcF5-49" target="_6ze0SiyMvSnPd6XlcF5-51">
          <mxGeometry relative="1" as="geometry" />
        </mxCell>
        <mxCell id="_6ze0SiyMvSnPd6XlcF5-49" value="Clínica adicionada&lt;br&gt;à listagem pública" style="whiteSpace=wrap;html=1;fillColor=#FFF2CC;strokeColor=#FF0000;rounded=1;arcSize=19;dashed=0;" vertex="1" parent="NbL5csSl9PgMOPHOTbrk-2">
          <mxGeometry x="50" y="800" width="120" height="45" as="geometry" />
        </mxCell>
        <mxCell id="_6ze0SiyMvSnPd6XlcF5-50" value="" style="edgeStyle=orthogonalEdgeStyle;rounded=0;orthogonalLoop=1;jettySize=auto;html=1;fontSize=12;" edge="1" parent="NbL5csSl9PgMOPHOTbrk-2" source="_6ze0SiyMvSnPd6XlcF5-47" target="_6ze0SiyMvSnPd6XlcF5-49">
          <mxGeometry relative="1" as="geometry" />
        </mxCell>
        <mxCell id="_6ze0SiyMvSnPd6XlcF5-51" value="" style="ellipse;html=1;shape=endState;fillColor=#000000;strokeColor=#000000;fontSize=12;" vertex="1" parent="NbL5csSl9PgMOPHOTbrk-2">
          <mxGeometry x="95" y="870" width="30" height="30" as="geometry" />
        </mxCell>
        <mxCell id="_6ze0SiyMvSnPd6XlcF5-56" value="Não" style="text;html=1;strokeColor=none;fillColor=none;align=center;verticalAlign=middle;whiteSpace=wrap;rounded=0;fontSize=12;" vertex="1" parent="NbL5csSl9PgMOPHOTbrk-2">
          <mxGeometry x="147.5" y="370" width="60" height="30" as="geometry" />
        </mxCell>
        <mxCell id="_6ze0SiyMvSnPd6XlcF5-58" value="Não" style="text;html=1;strokeColor=none;fillColor=none;align=center;verticalAlign=middle;whiteSpace=wrap;rounded=0;fontSize=12;" vertex="1" parent="NbL5csSl9PgMOPHOTbrk-2">
          <mxGeometry x="20" y="720" width="60" height="30" as="geometry" />
        </mxCell>
        <mxCell id="_6ze0SiyMvSnPd6XlcF5-59" value="Sim" style="text;html=1;strokeColor=none;fillColor=none;align=center;verticalAlign=middle;whiteSpace=wrap;rounded=0;fontSize=12;" vertex="1" parent="NbL5csSl9PgMOPHOTbrk-2">
          <mxGeometry x="95" y="760" width="60" height="30" as="geometry" />
        </mxCell>
        <mxCell id="NbL5csSl9PgMOPHOTbrk-3" value="OMD" style="swimlane;startSize=20;strokeColor=#FF0000;fillColor=#FFF2CC;" vertex="1" parent="NbL5csSl9PgMOPHOTbrk-0">
          <mxGeometry x="470" y="20" width="260" height="910" as="geometry">
            <mxRectangle x="440" y="20" width="30" height="470" as="alternateBounds" />
          </mxGeometry>
        </mxCell>
        <mxCell id="NbL5csSl9PgMOPHOTbrk-22" value="" style="edgeStyle=orthogonalEdgeStyle;rounded=0;orthogonalLoop=1;jettySize=auto;html=1;" edge="1" parent="NbL5csSl9PgMOPHOTbrk-3" source="NbL5csSl9PgMOPHOTbrk-16" target="NbL5csSl9PgMOPHOTbrk-18">
          <mxGeometry relative="1" as="geometry" />
        </mxCell>
        <mxCell id="NbL5csSl9PgMOPHOTbrk-16" value="Validação de&lt;br&gt;habilitação" style="html=1;align=center;verticalAlign=middle;rounded=1;absoluteArcSize=1;arcSize=10;dashed=0;strokeColor=#FF0000;fillColor=#FFF2CC;" vertex="1" parent="NbL5csSl9PgMOPHOTbrk-3">
          <mxGeometry x="60" y="30" width="140" height="40" as="geometry" />
        </mxCell>
        <mxCell id="NbL5csSl9PgMOPHOTbrk-36" value="" style="edgeStyle=orthogonalEdgeStyle;rounded=0;orthogonalLoop=1;jettySize=auto;html=1;fontSize=12;" edge="1" parent="NbL5csSl9PgMOPHOTbrk-3" source="NbL5csSl9PgMOPHOTbrk-18" target="NbL5csSl9PgMOPHOTbrk-35">
          <mxGeometry relative="1" as="geometry" />
        </mxCell>
        <mxCell id="NbL5csSl9PgMOPHOTbrk-18" value="Válidos ?" style="rhombus;strokeColor=#FF0000;fillColor=#FFF2CC;verticalAlign=middle;" vertex="1" parent="NbL5csSl9PgMOPHOTbrk-3">
          <mxGeometry x="92.5" y="90" width="75" height="30" as="geometry" />
        </mxCell>
        <mxCell id="NbL5csSl9PgMOPHOTbrk-35" value="Credenciais" style="html=1;fontSize=12;strokeColor=#FF0000;fillColor=#FFF2CC;verticalAlign=middle;" vertex="1" parent="NbL5csSl9PgMOPHOTbrk-3">
          <mxGeometry x="80" y="160" width="100" height="40" as="geometry" />
        </mxCell>
        <mxCell id="NbL5csSl9PgMOPHOTbrk-41" value="Sim" style="text;html=1;strokeColor=none;fillColor=none;align=center;verticalAlign=middle;whiteSpace=wrap;rounded=0;fontSize=12;" vertex="1" parent="NbL5csSl9PgMOPHOTbrk-3">
          <mxGeometry x="80" y="120" width="60" height="30" as="geometry" />
        </mxCell>
        <mxCell id="_6ze0SiyMvSnPd6XlcF5-55" value="Não" style="text;html=1;strokeColor=none;fillColor=none;align=center;verticalAlign=middle;whiteSpace=wrap;rounded=0;fontSize=12;" vertex="1" parent="NbL5csSl9PgMOPHOTbrk-3">
          <mxGeometry x="150" y="80" width="60" height="30" as="geometry" />
        </mxCell>
        <mxCell id="NbL5csSl9PgMOPHOTbrk-30" style="edgeStyle=orthogonalEdgeStyle;rounded=0;orthogonalLoop=1;jettySize=auto;html=1;exitX=1;exitY=0.5;exitDx=0;exitDy=0;entryX=0;entryY=0.5;entryDx=0;entryDy=0;fontSize=12;" edge="1" parent="NbL5csSl9PgMOPHOTbrk-0" source="NbL5csSl9PgMOPHOTbrk-9" target="NbL5csSl9PgMOPHOTbrk-11">
          <mxGeometry relative="1" as="geometry">
            <mxPoint x="141.25" y="245" as="sourcePoint" />
            <Array as="points">
              <mxPoint x="230" y="200" />
              <mxPoint x="230" y="70" />
            </Array>
          </mxGeometry>
        </mxCell>
        <mxCell id="NbL5csSl9PgMOPHOTbrk-38" style="edgeStyle=orthogonalEdgeStyle;rounded=0;orthogonalLoop=1;jettySize=auto;html=1;exitX=0;exitY=0.5;exitDx=0;exitDy=0;entryX=1;entryY=0.5;entryDx=0;entryDy=0;fontSize=12;" edge="1" parent="NbL5csSl9PgMOPHOTbrk-0" source="NbL5csSl9PgMOPHOTbrk-35" target="NbL5csSl9PgMOPHOTbrk-37">
          <mxGeometry relative="1" as="geometry" />
        </mxCell>
        <mxCell id="_6ze0SiyMvSnPd6XlcF5-7" style="edgeStyle=orthogonalEdgeStyle;rounded=0;orthogonalLoop=1;jettySize=auto;html=1;exitX=1;exitY=0.5;exitDx=0;exitDy=0;entryX=0;entryY=0.5;entryDx=0;entryDy=0;fontSize=12;" edge="1" parent="NbL5csSl9PgMOPHOTbrk-0" source="_6ze0SiyMvSnPd6XlcF5-0" target="_6ze0SiyMvSnPd6XlcF5-6">
          <mxGeometry relative="1" as="geometry">
            <Array as="points">
              <mxPoint x="230" y="390" />
              <mxPoint x="230" y="290" />
            </Array>
          </mxGeometry>
        </mxCell>
        <mxCell id="_6ze0SiyMvSnPd6XlcF5-16" style="edgeStyle=orthogonalEdgeStyle;rounded=0;orthogonalLoop=1;jettySize=auto;html=1;exitX=1;exitY=0.5;exitDx=0;exitDy=0;entryX=0;entryY=0.5;entryDx=0;entryDy=0;fontSize=12;" edge="1" parent="NbL5csSl9PgMOPHOTbrk-0" source="_6ze0SiyMvSnPd6XlcF5-6" target="_6ze0SiyMvSnPd6XlcF5-15">
          <mxGeometry relative="1" as="geometry">
            <Array as="points">
              <mxPoint x="700" y="290" />
              <mxPoint x="700" y="70" />
            </Array>
          </mxGeometry>
        </mxCell>
        <mxCell id="_6ze0SiyMvSnPd6XlcF5-8" value="ERS" style="swimlane;startSize=20;strokeColor=#FF0000;fillColor=#FFF2CC;" vertex="1" parent="NbL5csSl9PgMOPHOTbrk-0">
          <mxGeometry x="730" y="20" width="260" height="910" as="geometry">
            <mxRectangle x="440" y="20" width="30" height="470" as="alternateBounds" />
          </mxGeometry>
        </mxCell>
        <mxCell id="_6ze0SiyMvSnPd6XlcF5-9" value="" style="edgeStyle=orthogonalEdgeStyle;rounded=0;orthogonalLoop=1;jettySize=auto;html=1;" edge="1" parent="_6ze0SiyMvSnPd6XlcF5-8" source="_6ze0SiyMvSnPd6XlcF5-10">
          <mxGeometry relative="1" as="geometry">
            <mxPoint x="130.0588235294117" y="90.02352941176468" as="targetPoint" />
          </mxGeometry>
        </mxCell>
        <mxCell id="_6ze0SiyMvSnPd6XlcF5-11" value="" style="edgeStyle=orthogonalEdgeStyle;rounded=0;orthogonalLoop=1;jettySize=auto;html=1;fontSize=12;" edge="1" parent="_6ze0SiyMvSnPd6XlcF5-8" source="_6ze0SiyMvSnPd6XlcF5-12">
          <mxGeometry relative="1" as="geometry">
            <mxPoint x="130" y="160" as="targetPoint" />
          </mxGeometry>
        </mxCell>
        <mxCell id="_6ze0SiyMvSnPd6XlcF5-18" value="" style="edgeStyle=orthogonalEdgeStyle;rounded=0;orthogonalLoop=1;jettySize=auto;html=1;fontSize=12;" edge="1" parent="_6ze0SiyMvSnPd6XlcF5-8" source="_6ze0SiyMvSnPd6XlcF5-15" target="_6ze0SiyMvSnPd6XlcF5-17">
          <mxGeometry relative="1" as="geometry" />
        </mxCell>
        <mxCell id="_6ze0SiyMvSnPd6XlcF5-15" value="Fornecimento de dados&lt;br&gt;da Cllínica" style="html=1;align=center;verticalAlign=top;rounded=1;absoluteArcSize=1;arcSize=10;dashed=0;fontSize=12;strokeColor=#FF0000;fillColor=#FFF2CC;" vertex="1" parent="_6ze0SiyMvSnPd6XlcF5-8">
          <mxGeometry x="60" y="30" width="140" height="40" as="geometry" />
        </mxCell>
        <mxCell id="_6ze0SiyMvSnPd6XlcF5-17" value="Dados da Clínica" style="whiteSpace=wrap;html=1;verticalAlign=middle;fillColor=#FFF2CC;strokeColor=#FF0000;rounded=1;arcSize=0;dashed=0;" vertex="1" parent="_6ze0SiyMvSnPd6XlcF5-8">
          <mxGeometry x="70" y="110" width="120" height="40" as="geometry" />
        </mxCell>
        <mxCell id="_6ze0SiyMvSnPd6XlcF5-20" value="" style="edgeStyle=orthogonalEdgeStyle;rounded=0;orthogonalLoop=1;jettySize=auto;html=1;fontSize=12;" edge="1" parent="NbL5csSl9PgMOPHOTbrk-0" source="_6ze0SiyMvSnPd6XlcF5-17" target="_6ze0SiyMvSnPd6XlcF5-19">
          <mxGeometry relative="1" as="geometry">
            <Array as="points">
              <mxPoint x="830" y="180" />
              <mxPoint x="720" y="180" />
              <mxPoint x="720" y="350" />
            </Array>
          </mxGeometry>
        </mxCell>
        <mxCell id="_6ze0SiyMvSnPd6XlcF5-32" style="edgeStyle=orthogonalEdgeStyle;rounded=0;orthogonalLoop=1;jettySize=auto;html=1;exitX=0;exitY=0;exitDx=0;exitDy=20;exitPerimeter=0;entryX=0;entryY=0;entryDx=12;entryDy=20;entryPerimeter=0;fontSize=12;" edge="1" parent="NbL5csSl9PgMOPHOTbrk-0" source="_6ze0SiyMvSnPd6XlcF5-25" target="_6ze0SiyMvSnPd6XlcF5-30">
          <mxGeometry relative="1" as="geometry" />
        </mxCell>
        <mxCell id="_6ze0SiyMvSnPd6XlcF5-46" style="edgeStyle=orthogonalEdgeStyle;rounded=0;orthogonalLoop=1;jettySize=auto;html=1;exitX=1;exitY=0.5;exitDx=0;exitDy=0;entryX=0;entryY=0.5;entryDx=0;entryDy=0;fontSize=12;" edge="1" parent="NbL5csSl9PgMOPHOTbrk-0" source="_6ze0SiyMvSnPd6XlcF5-43" target="_6ze0SiyMvSnPd6XlcF5-45">
          <mxGeometry relative="1" as="geometry" />
        </mxCell>
        <mxCell id="_6ze0SiyMvSnPd6XlcF5-54" style="edgeStyle=orthogonalEdgeStyle;rounded=0;orthogonalLoop=1;jettySize=auto;html=1;exitX=1;exitY=0.5;exitDx=0;exitDy=0;entryX=1;entryY=0.5;entryDx=0;entryDy=0;fontSize=12;" edge="1" parent="NbL5csSl9PgMOPHOTbrk-0" source="NbL5csSl9PgMOPHOTbrk-18" target="_6ze0SiyMvSnPd6XlcF5-51">
          <mxGeometry relative="1" as="geometry">
            <Array as="points">
              <mxPoint x="670" y="125" />
              <mxPoint x="670" y="905" />
            </Array>
          </mxGeometry>
        </mxCell>
      </root>
    </mxGraphModel>
  </diagram>
</mxfile>
